<?xml version="1.0" encoding="utf-8"?>
<!-- Generator: Adobe Illustrator 19.0.0, SVG Export Plug-In . SVG Version: 6.00 Build 0)  -->
<svg version="1.1" id="Слой_1" xmlns="http://www.w3.org/2000/svg" xmlns:xlink="http://www.w3.org/1999/xlink" x="0px" y="0px"
	 viewBox="-17 141 576 512" style="enable-background:new -17 141 576 512;" xml:space="preserve">
<style type="text/css">
	.st0{fill:#FFFFFF;}
</style>
<path class="st0" d="M-17,165c0-13.3,10.7-24,24-24h45.5c22,0,41.5,12.8,50.6,32h411c26.3,0,45.5,25,38.6,50.4l-41,152.3
	c-8.5,31.4-37,53.3-69.5,53.3H153.7l5.4,28.5c2.2,11.3,12.1,19.5,23.6,19.5H471c13.3,0,24,10.7,24,24s-10.7,24-24,24H182.7
	c-34.6,0-64.3-24.6-70.7-58.5l-51.6-271c-0.7-3.8-4-6.5-7.9-6.5H7C-6.3,189-17,178.3-17,165z M111,605c0-26.5,21.5-48,48-48
	s48,21.5,48,48s-21.5,48-48,48S111,631.5,111,605L111,605z M447,557c26.5,0,48,21.5,48,48s-21.5,48-48,48l0,0c-26.5,0-48-21.5-48-48
	S420.5,557,447,557z"/>
</svg>
